<svg width="1000" height="1000" viewBox="0 0 1000 1000" fill="none" xmlns="http://www.w3.org/2000/svg">
<rect width="1000" height="1000" rx="500" fill="#FFF618"/>
<path d="M660.949 780.165C660.949 823.778 589.074 869.7 500.438 869.7C411.802 869.7 339.94 823.778 339.94 780.165C339.94 736.551 392.921 713.067 426.228 723.266C443.177 728.486 457.71 740.457 474.23 747.099C488.387 752.802 504.115 754.426 518.702 750.226C536.147 745.207 550.815 732.391 567.764 725.682C588.161 717.63 611.887 719.16 630.473 731.761C649.636 744.764 660.949 762.881 660.949 780.165Z" fill="black"/>
<path d="M661.959 656.271C724.942 650.204 763.61 530.001 748.327 387.792C733.043 245.583 669.596 135.219 606.613 141.286C543.63 147.354 504.962 267.556 520.245 409.765C535.529 551.974 598.976 662.339 661.959 656.271Z" fill="black"/>
<path d="M478.636 409.895C493.734 268.381 455.165 148.802 392.49 142.808C329.815 136.814 266.768 246.675 251.67 388.189C236.572 529.703 275.141 649.282 337.816 655.276C400.491 661.27 463.539 551.409 478.636 409.895Z" fill="black"/>
<path d="M500.439 713.591C542.017 713.591 575.723 691.307 575.723 663.818C575.723 636.329 542.017 614.045 500.439 614.045C458.861 614.045 425.156 636.329 425.156 663.818C425.156 691.307 458.861 713.591 500.439 713.591Z" fill="black"/>
</svg>
