<svg width="50" height="67" viewBox="0 0 50 67" fill="none" xmlns="http://www.w3.org/2000/svg">
<path d="M10.3546 58.4874C10.3546 62.4127 16.8233 66.5456 24.8005 66.5456C32.7778 66.5456 39.2453 62.4127 39.2453 58.4874C39.2453 54.5622 34.4771 52.4487 31.4794 53.3666C29.954 53.8364 28.646 54.9137 27.1593 55.5115C25.8851 56.0248 24.4696 56.171 23.1568 55.7929C21.5867 55.3412 20.2666 54.1878 18.7412 53.5839C16.9054 52.8593 14.7701 52.997 13.0974 54.1311C11.3727 55.3014 10.3546 56.9318 10.3546 58.4874Z" fill="black"/>
<path d="M10.2637 47.3374C4.5952 46.7913 1.11507 35.9731 2.49058 23.1743C3.86609 10.3755 9.57636 0.44267 15.2448 0.988758C20.9133 1.53485 24.3934 12.353 23.0179 25.1519C21.6424 37.9507 15.9321 47.8835 10.2637 47.3374Z" fill="black"/>
<path d="M26.7623 25.1635C25.4035 12.4272 28.8747 1.66514 34.5155 1.12569C40.1562 0.586232 45.8305 10.4737 47.1893 23.21C48.5481 35.9462 45.0769 46.7083 39.4361 47.2478C33.7954 47.7872 28.1211 37.8998 26.7623 25.1635Z" fill="black"/>
<path d="M24.7999 52.4958C21.0579 52.4958 18.0244 50.4902 18.0244 48.0162C18.0244 45.5422 21.0579 43.5366 24.7999 43.5366C28.5419 43.5366 31.5754 45.5422 31.5754 48.0162C31.5754 50.4902 28.5419 52.4958 24.7999 52.4958Z" fill="black"/>
</svg>
